<?xml version="1.0" standalone="no"?>
<!DOCTYPE svg PUBLIC "-//W3C//DTD SVG 20010904//EN"
 "http://www.w3.org/TR/2001/REC-SVG-20010904/DTD/svg10.dtd">
<svg version="1.0" xmlns="http://www.w3.org/2000/svg"
 width="200.000000pt" height="200.000000pt" viewBox="0 0 200.000000 200.000000"
 preserveAspectRatio="xMidYMid meet">
<metadata>
Created by potrace 1.11, written by Peter Selinger 2001-2013
</metadata>
<g transform="translate(0.000000,200.000000) scale(0.100000,-0.100000)"
fill="#000000" stroke="none">
<path d="M940 1887 c-139 -28 -221 -188 -162 -318 40 -87 113 -133 213 -134
56 0 73 4 115 30 93 58 136 174 99 272 -42 113 -148 173 -265 150z m113 -119
c28 -15 57 -70 57 -110 0 -29 -8 -46 -38 -78 -32 -33 -46 -40 -76 -40 -74 0
-129 51 -129 120 0 96 98 153 186 108z"/>
<path d="M1513 1560 c-71 -16 -136 -79 -158 -152 -58 -195 136 -363 318 -274
84 40 129 112 129 203 0 57 -3 68 -25 110 -47 88 -161 137 -264 113z m117
-113 c39 -20 72 -76 67 -114 -17 -126 -179 -158 -232 -47 -49 105 62 213 165
161z"/>
<path d="M367 1535 c-111 -28 -183 -118 -181 -225 3 -120 86 -212 207 -226
174 -22 307 174 226 331 -49 96 -153 145 -252 120z m113 -120 c27 -14 60 -68
60 -99 0 -61 -65 -126 -125 -126 -60 0 -125 65 -125 126 0 38 34 87 73 104 42
19 73 18 117 -5z"/>
<path d="M1056 1285 c-32 -30 -34 -72 -5 -109 42 -54 129 -19 131 54 2 65 -78
100 -126 55z"/>
<path d="M844 1290 c-26 -10 -32 -20 -44 -61 -8 -27 -5 -35 20 -60 50 -50 121
-28 133 42 10 52 -58 101 -109 79z"/>
<path d="M1175 1085 c-34 -33 -33 -78 2 -111 22 -20 34 -24 57 -20 72 15 95
87 42 133 -35 30 -71 29 -101 -2z"/>
<path d="M716 1074 c-41 -42 -32 -94 22 -123 30 -16 65 -7 92 21 27 29 25 69
-5 102 -32 34 -74 34 -109 0z"/>
<path d="M370 911 c-203 -63 -234 -325 -50 -425 94 -51 208 -31 279 50 101
115 70 284 -64 352 -45 23 -127 35 -165 23z m147 -145 c39 -42 44 -93 13 -143
-77 -126 -272 -22 -215 115 34 79 141 95 202 28z"/>
<path d="M1530 910 c-78 -22 -135 -76 -160 -150 -51 -150 59 -303 217 -302
232 2 317 311 118 428 -46 27 -127 38 -175 24z m142 -137 c78 -78 24 -205 -87
-205 -120 0 -165 158 -63 222 47 30 110 22 150 -17z"/>
<path d="M1066 884 c-20 -21 -25 -33 -20 -57 13 -74 84 -96 137 -42 25 24 21
72 -8 100 -32 33 -75 33 -109 -1z"/>
<path d="M841 883 c-32 -27 -36 -76 -9 -108 51 -58 138 -21 138 59 0 54 -84
86 -129 49z"/>
<path d="M942 551 c-99 -34 -156 -114 -155 -216 1 -102 44 -168 138 -211 116
-53 252 3 302 126 74 179 -101 364 -285 301z m124 -107 c44 -21 67 -60 67
-110 0 -53 -24 -91 -70 -110 -91 -38 -183 33 -169 131 13 81 97 125 172 89z"/>
</g>
</svg>
